<?xml version="1.0" encoding="UTF-8"?>
<svg id="Layer_1" xmlns="http://www.w3.org/2000/svg" version="1.1" viewBox="0 0 512 512">
  <!-- Generator: Adobe Illustrator 29.3.1, SVG Export Plug-In . SVG Version: 2.1.0 Build 151)  -->
  <defs>
    <style>
      .st0 {
        fill: #fff;
      }
    </style>
  </defs>
  <path class="st0" d="M506.5,253.5h-59.5v-58.5c0-13.1-20.3-34.5-33.5-34.5h-146l-1.5-1.5v-49c24-9,35.5-35.4,22.5-58.5-11.5-20.5-39.4-26.8-58.4-12.4-26.8,20.3-18.9,58.7,10.9,70.9v50.5H93.5c-11.5,0-32.5,21-32.5,32.5v59l-1.5,1.5H5.5c-.7,0-4.5,5.1-5.5,6v111c1.2,1.4,4.9,6,6.5,6h54.5v60.5c0,12.8,22.1,32.9,35.5,32.5,106.8-.8,214.1,1.7,320.7-1.3,12.4-2.3,29.8-20.7,29.8-33.2v-58.5h58.5c1.6,0,5.3-4.6,6.5-6v-111c-1-.9-4.8-6-5.5-6ZM340,231.4l-6.3,13.7c-2,4.6-3.5,8.1-5.4,13.1h-.2c-1.9-4.4-3.6-8.3-6-13.1l-6.5-13.6c3.9-1.2,8-1.9,12.3-1.9s8.3.6,12.1,1.8ZM334.2,295.1l6.7,13.3c-4.1,1.4-8.4,2.1-12.9,2.1s-9-.8-13.1-2.2l6-13.2c2.6-5.5,4.6-9.6,6.2-14.1h.2c2.2,4.6,4.1,8.6,7,14.1ZM300.3,240.4l16.5,29.2-16.9,29.6c-7.6-7.4-12.4-17.7-12.4-29.2s5-22.2,12.9-29.6ZM224.6,270c0,11.5-4.8,21.8-12.5,29.2l-17.5-30.1,16.7-29c8.1,7.4,13.2,18.1,13.2,29.9ZM197,308.4c-4.1,1.4-8.4,2.1-12.9,2.1s-9-.8-13.1-2.2l6-13.2c2.6-5.5,4.6-9.6,6.2-14.1h.2c2.2,4.6,4.1,8.6,7,14.1l6.7,13.3ZM184.1,229.5c4.2,0,8.3.6,12.1,1.8l-6.3,13.7c-2,4.6-3.5,8.1-5.4,13.1h-.2c-1.9-4.4-3.6-8.3-6-13.1l-6.5-13.6c3.9-1.2,8-1.9,12.3-1.9ZM156.5,240.4l16.5,29.2-16.9,29.6c-7.6-7.4-12.4-17.7-12.4-29.2s5-22.2,12.9-29.6ZM343.5,400.5h-176c-15.9-2.5-16.3-33.8.2-36.8l175.7-.2c17.5,2.7,17.4,34.9,0,37ZM356,299.3l-17.5-30.1,16.7-29c8.1,7.4,13.2,18.1,13.2,29.9s-4.8,21.8-12.5,29.2Z"/>
</svg>