<?xml version="1.0" encoding="UTF-8"?>
<svg id="Layer_1" xmlns="http://www.w3.org/2000/svg" version="1.1" viewBox="0 0 400 400">
  <!-- Generator: Adobe Illustrator 29.3.1, SVG Export Plug-In . SVG Version: 2.1.0 Build 151)  -->
  <defs>
    <style>
      .st0 {
        fill: #fff;
      }
    </style>
  </defs>
  <path class="st0" d="M373.7,163.7c9.2-27.2,6-57.1-8.7-81.8-22.1-38-66.6-57.5-110-48.3C217.2-7.9,152.4-11.3,110.3,26c-13.4,11.8-23.3,26.9-28.9,43.8-28.5,5.8-53.1,23.4-67.5,48.3-22.4,37.9-17.3,85.7,12.5,118.3-9.2,27.2-6.1,57.1,8.6,81.8,22.1,38,66.6,57.5,110.1,48.3,19.3,21.5,47.1,33.7,76.2,33.5,44.5,0,83.9-28.3,97.5-70.1,28.5-5.8,53.1-23.4,67.5-48.3,22.1-37.9,17-85.4-12.6-117.9h0ZM221.3,373.8c-17.8,0-35-6.1-48.6-17.3l2.4-1.3,80.7-46c4.1-2.4,6.6-6.7,6.6-11.4v-112.3l34.1,19.5c.3.2.6.5.6.9v93c0,41.3-34,74.8-75.9,74.9h0ZM58.1,305.1c-8.9-15.2-12.1-33-9-50.2l2.4,1.4,80.8,46c4.1,2.4,9.1,2.4,13.2,0l98.7-56.1v38.9c0,.4-.2.8-.6,1l-81.8,46.5c-36.3,20.6-82.8,8.4-103.8-27.4h.1ZM36.8,131.6c9-15.3,23.1-26.9,40-32.9v94.6c0,4.7,2.4,9,6.6,11.3l98.2,55.9-34.1,19.5c-.4.2-.8.2-1.2,0l-81.6-46.4c-36.3-20.7-48.7-66.5-27.8-102.3v.4h-.1ZM317.2,195.9l-98.6-56.5,34.1-19.4c.4-.2.8-.2,1.2,0l81.6,46.5c36.3,20.7,48.8,66.5,27.8,102.3-8.8,15.1-22.7,26.7-39.3,32.8v-94.6c-.1-4.6-2.8-8.9-6.9-11.1h.1ZM351.2,145.5l-2.4-1.4-80.7-46.4c-4.1-2.4-9.2-2.4-13.3,0l-98.6,56.1v-38.9c0-.4.1-.8.5-1l81.6-46.4c36.4-20.7,82.9-8.3,103.8,27.5,8.9,15.2,12.1,32.9,9.1,50.1v.3h0ZM137.6,214.4l-34.1-19.4c-.3-.2-.6-.6-.6-.9v-92.8c0-41.4,34.1-74.9,76.1-74.9s34.9,6.2,48.5,17.3l-2.4,1.3-80.7,46c-4.1,2.4-6.6,6.7-6.6,11.4v112h-.2ZM156.1,175l44-25,44,25v50l-43.9,25-44-25v-50h-.1Z"/>
</svg>